<svg id="Layer_1" data-name="Layer 1" xmlns="http://www.w3.org/2000/svg" xmlns:xlink="http://www.w3.org/1999/xlink" viewBox="0 0 286 286"><defs><style>.cls-1,.cls-10,.cls-11,.cls-12,.cls-13,.cls-2,.cls-3,.cls-4,.cls-5,.cls-6,.cls-7,.cls-8,.cls-9{fill:none;stroke-miterlimit:10;}.cls-1{stroke:url(#linear-gradient);}.cls-2{stroke:url(#linear-gradient-2);}.cls-3{stroke:url(#linear-gradient-3);}.cls-4{stroke:url(#linear-gradient-4);}.cls-5{stroke:url(#linear-gradient-5);}.cls-6{stroke:url(#linear-gradient-6);}.cls-7{stroke:url(#linear-gradient-7);}.cls-8{stroke:url(#linear-gradient-8);}.cls-9{stroke:url(#linear-gradient-9);}.cls-10{stroke:url(#linear-gradient-10);}.cls-11{stroke:url(#linear-gradient-11);}.cls-12{stroke:url(#linear-gradient-12);}.cls-13{stroke:url(#linear-gradient-13);}</style><linearGradient id="linear-gradient" y1="143" x2="286" y2="143" gradientUnits="userSpaceOnUse"><stop offset="0.01" stop-color="#a1c4fd"/><stop offset="0.57" stop-color="#b2d7fc"/><stop offset="1" stop-color="#c2e9fb"/></linearGradient><linearGradient id="linear-gradient-2" x1="154.26" y1="123.5" x2="159.4" y2="123.5" xlink:href="#linear-gradient"/><linearGradient id="linear-gradient-3" x1="111.25" y1="158.23" x2="191.13" y2="158.23" xlink:href="#linear-gradient"/><linearGradient id="linear-gradient-4" x1="166.23" y1="97.96" x2="180.1" y2="97.96" xlink:href="#linear-gradient"/><linearGradient id="linear-gradient-5" x1="170.6" y1="109.02" x2="175.74" y2="109.02" xlink:href="#linear-gradient"/><linearGradient id="linear-gradient-6" x1="89.5" y1="106.87" x2="122.84" y2="106.87" xlink:href="#linear-gradient"/><linearGradient id="linear-gradient-7" x1="154.15" y1="113.09" x2="166.76" y2="113.09" xlink:href="#linear-gradient"/><linearGradient id="linear-gradient-8" x1="183.49" y1="106.46" x2="196.5" y2="106.46" xlink:href="#linear-gradient"/><linearGradient id="linear-gradient-9" x1="146.76" y1="98.52" x2="155.5" y2="98.52" xlink:href="#linear-gradient"/><linearGradient id="linear-gradient-10" x1="125.1" y1="108.08" x2="147.23" y2="108.08" xlink:href="#linear-gradient"/><linearGradient id="linear-gradient-11" x1="133.6" y1="106.23" x2="140.05" y2="106.23" xlink:href="#linear-gradient"/><linearGradient id="linear-gradient-12" x1="172.43" y1="140.79" x2="181.16" y2="140.79" xlink:href="#linear-gradient"/><linearGradient id="linear-gradient-13" x1="169.15" y1="154.76" x2="174.32" y2="154.76" xlink:href="#linear-gradient"/></defs><title>experience</title><circle class="cls-1" cx="143" cy="143" r="142.5"/><path class="cls-2" d="M158.29,122.06a2.11,2.11,0,0,0-2.93,0,2,2,0,0,0,0,2.88,2.11,2.11,0,0,0,2.93,0,2,2,0,0,0,0-2.88Z"/><path class="cls-3" d="M190.62,132.92a35,35,0,0,0-1.63-10,2.07,2.07,0,0,0-2-1.43H164.73a2,2,0,1,0,0,4.06h20.72a31.2,31.2,0,0,1,1,7.46,41.36,41.36,0,0,1-5.94,21.35A31.33,31.33,0,0,0,176,174.09l1.8,16.85H150.86v-5.67a11.82,11.82,0,0,0-3.61-8.53,12.33,12.33,0,0,0-8.65-3.51h-.11a12.41,12.41,0,0,1-8.76-3.56,12,12,0,0,1-3.61-8.65l0-6.62a2,2,0,0,0-.6-1.44,2.07,2.07,0,0,0-1.47-.6H117c2.14-5.14,5.44-14.29,5.44-18.82a30.84,30.84,0,0,1,1-8H148.9a2,2,0,1,0,0-4.06h-27a2.08,2.08,0,0,0-2,1.42,34.9,34.9,0,0,0-1.65,10.65c0,4.44-4.39,16-6.32,20a2,2,0,0,0,.11,2,2.09,2.09,0,0,0,1.76.95H122l0,4.57a15.93,15.93,0,0,0,4.82,11.55,16.56,16.56,0,0,0,11.69,4.76h.11a8.16,8.16,0,0,1,5.73,2.33,7.83,7.83,0,0,1,2.39,5.64V193a2,2,0,0,0,2.07,2h31.3a2.07,2.07,0,0,0,1.54-.67,2,2,0,0,0,.52-1.57l-2-19.09a27.36,27.36,0,0,1,4-17.22A44.94,44.94,0,0,0,190.62,132.92Z"/><path class="cls-4" d="M173.17,91a6.38,6.38,0,0,0-6.44,6.31,2.07,2.07,0,0,0,4.14,0,2.3,2.3,0,1,1,2.3,2.25,2,2,0,0,0-2.07,2v1.28a2.07,2.07,0,0,0,4.09.43,6.3,6.3,0,0,0-2-12.31Z"/><path class="cls-5" d="M174.63,107.59a2.09,2.09,0,0,0-1.46-.6,2.12,2.12,0,0,0-1.47.6,2,2,0,0,0,0,2.87,2.11,2.11,0,0,0,2.93,0,2,2,0,0,0,0-2.87Z"/><path class="cls-6" d="M121.74,106.05a2,2,0,0,0,0-2.87L109.93,91.6a2.09,2.09,0,0,0-2.93,0l-6.1,6a4.86,4.86,0,0,0-1.42,2.75,5,5,0,0,0-2.8,1.39l-6.07,6a2,2,0,0,0,0,2.87l11.8,11.59a2.09,2.09,0,0,0,1.47.59,2,2,0,0,0,1.46-.59l6.08-6a.87.87,0,0,1,.63-.26.89.89,0,0,1,.64.26,2.1,2.1,0,0,0,2.92,0h0v0a2,2,0,0,0,.6-1.43,2,2,0,0,0-.6-1.44.85.85,0,0,1,0-1.24Zm-13.25,7.25-4.61,4.53L95,109.12l4.61-4.53a.91.91,0,0,1,1.27,0l8.3,8.15A4.57,4.57,0,0,0,108.49,113.3Zm4.22-4.14a4.64,4.64,0,0,0-.58.68l-8.3-8.14a.88.88,0,0,1,0-1.25l4.64-4.55,8.87,8.72Z"/><path class="cls-7" d="M164.19,111.06h-1.66v-1.63a2.07,2.07,0,0,0-4.14,0v1.63h-1.67a2,2,0,1,0,0,4.06h1.67v1.64a2.07,2.07,0,0,0,4.14,0v-1.64h1.66a2,2,0,1,0,0-4.06Z"/><path class="cls-8" d="M190,100.57a5.89,5.89,0,1,0,6,5.89A6,6,0,0,0,190,100.57Zm0,7.72a1.83,1.83,0,1,1,1.86-1.83A1.85,1.85,0,0,1,190,108.29Z"/><path class="cls-9" d="M153.73,91.16a2.09,2.09,0,0,0-2.26.43l-3.6,3.52a2,2,0,0,0,0,2.87,2.1,2.1,0,0,0,2.93,0l.07-.07V104a2.07,2.07,0,0,0,4.14,0V93A2,2,0,0,0,153.73,91.16Z"/><path class="cls-10" d="M136.17,97.71a10.37,10.37,0,1,0,10.56,10.37A10.48,10.48,0,0,0,136.17,97.71Zm0,16.67a6.31,6.31,0,1,1,6.42-6.3A6.37,6.37,0,0,1,136.17,114.38Z"/><path class="cls-11" d="M138.24,106.18v-1.8a2.07,2.07,0,0,0-4.14,0v3.7a2,2,0,0,0,2.07,2h1.31a2,2,0,0,0,.76-3.93Z"/><path class="cls-12" d="M180.66,132.92a2,2,0,0,0-2.07-2h0a2,2,0,0,0-2,2.06,35.49,35.49,0,0,1-3.41,14.81,2,2,0,0,0,1.06,2.67,2,2,0,0,0,.83.18,2.08,2.08,0,0,0,1.9-1.22A39.41,39.41,0,0,0,180.66,132.92Z"/><path class="cls-13" d="M172.83,153a2.1,2.1,0,0,0-2.85.68l0,.06a2,2,0,0,0,.69,2.79,2.12,2.12,0,0,0,1.07.3,2.08,2.08,0,0,0,1.78-1l0-.06A2,2,0,0,0,172.83,153Z"/></svg>