<svg id="Layer_1" data-name="Layer 1" xmlns="http://www.w3.org/2000/svg" xmlns:xlink="http://www.w3.org/1999/xlink" viewBox="0 0 286 286"><defs><style>.cls-1,.cls-2{fill:none;stroke-miterlimit:10;}.cls-1{stroke:url(#linear-gradient);}.cls-2{stroke:url(#linear-gradient-2);}</style><linearGradient id="linear-gradient" y1="143" x2="286" y2="143" gradientUnits="userSpaceOnUse"><stop offset="0.01" stop-color="#a1c4fd"/><stop offset="0.57" stop-color="#b2d7fc"/><stop offset="1" stop-color="#c2e9fb"/></linearGradient><linearGradient id="linear-gradient-2" x1="89.5" x2="196.5" xlink:href="#linear-gradient"/></defs><title>service</title><circle class="cls-1" cx="143" cy="143" r="142.5"/><path class="cls-2" d="M173.52,168.15A174.53,174.53,0,0,0,174.79,147a13.14,13.14,0,0,0,4.31-3.85c3.23-4.58,3.49-11.12.8-19.45a2,2,0,0,0-.8-1l-1.34-.9a30.56,30.56,0,0,0-7.22-20.62c-6-6.7-15.23-10.09-27.45-10.09s-21.45,3.47-27.44,10.09a30.52,30.52,0,0,0-7.23,20.62l-1.34.9a2,2,0,0,0-.8,1c-4.66,14.43.54,20.64,5,23.26a150,150,0,0,0,1.15,21.29C101.48,172.51,89.67,180.15,90,193a2,2,0,0,0,2,2H194a2,2,0,0,0,2-2C196.31,180.09,184.38,172.42,173.52,168.15Zm-62.2-26.25c-4-4-3.23-10.78-1.51-16.4l1.7-1.15a2,2,0,0,0,.89-1.88,27,27,0,0,1,6.18-18.78C123.77,98,132,95,143,95s19.22,3,24.44,8.8a27.07,27.07,0,0,1,6.17,18.78,2,2,0,0,0,.89,1.88l1.72,1.15c2,6.72,1.91,11.82-.46,15.19a8.87,8.87,0,0,1-1.1,1.27c-.7-15.31-4.28-26.79-10.74-34.19a27.08,27.08,0,0,0-10.61-7.51h-.18a33.09,33.09,0,0,0-11.51-2.16,24.24,24.24,0,0,0-19.28,8.31C114.68,115.17,112,129.33,111.32,141.9Zm46.78,18.6,0-.08a22.47,22.47,0,0,0,4.45-9.06l5.32-2.26a17.08,17.08,0,0,0,2.91-.52,177.79,177.79,0,0,1-1.17,18.16,91,91,0,0,0-11.47-3.05v-2.87A2,2,0,0,0,158.1,160.5Zm-8.67-5.77a2.25,2.25,0,1,1-2.25-2.26h0a2.26,2.26,0,0,1,2.21,2.3v0Zm-2.27-6.21,0-.08a6.3,6.3,0,1,0,6.2,6.78l4.32-1.84c-3.54,8.33-12.16,11.52-14.67,12.29-11-6.06-16.69-12.11-16.47-18,.36-9.4,15.33-16.14,17-16.95a23.15,23.15,0,0,0,9.15-6.65c5.16,9.46,7.22,17.61,6.24,24.37l-6.62,2.8A6.23,6.23,0,0,0,147.16,148.52Zm-31.92-3.35.09-.06c.38-12.63,2.6-27.52,10-36.07a20,20,0,0,1,16.21-6.94,29.64,29.64,0,0,1,8.72,1.37,16.3,16.3,0,0,0,.73,5.59c.86,3.35,1.74,6.8,0,10.08v.14a2.12,2.12,0,0,0-.11.21c0,.18-1.52,4.33-8.88,7.54-3.17,1.37-19,8.86-19.44,20.48-.16,4.2,1.7,8.29,5.53,12.29a2,2,0,0,0-.26.92v2.85a92.44,92.44,0,0,0-11.67,3.1,154.47,154.47,0,0,1-1-20.29A2,2,0,0,0,115.24,145.17Zm52.19-.14a2,2,0,0,0-.73.16l-3.41,1.45c.32-7.58-2.4-16.5-8.26-26.57a18.33,18.33,0,0,0,0-12.1c-.26-1-.5-2-.64-2.81a23.39,23.39,0,0,1,6.58,5.25c6.15,7.08,9.46,18.44,9.85,33.89A12.84,12.84,0,0,1,167.43,145ZM141,190.9H94.08c1.58-15.15,26.08-21.48,33.74-23.12v3.54c0,4.57,5.54,8.06,13.16,8.65V190.9Zm-9.14-19.56h0v-8.07a65.25,65.25,0,0,0,10,6.39,1.93,1.93,0,0,0,.94.24h.44a30.34,30.34,0,0,0,10.91-5.48v7c0,1.91-4.35,4.68-11.15,4.68S131.84,173.19,131.84,171.34ZM145,190.9V180c7.62-.52,13.16-4,13.16-8.65V167.8c7.72,1.62,32.1,7.93,33.74,23.12Z"/></svg>