<svg id="Layer_1" data-name="Layer 1" xmlns="http://www.w3.org/2000/svg" xmlns:xlink="http://www.w3.org/1999/xlink" viewBox="0 0 48 48"><defs><style>.cls-1{fill:#fff;}.cls-2{fill:url(#linear-gradient);}.cls-3{fill:url(#linear-gradient-2);}</style><linearGradient id="linear-gradient" x1="20" y1="28.95" x2="27.51" y2="28.95" gradientUnits="userSpaceOnUse"><stop offset="0.01" stop-color="#a1c4fd"/><stop offset="0.57" stop-color="#b2d7fc"/><stop offset="1" stop-color="#c2e9fb"/></linearGradient><linearGradient id="linear-gradient-2" x1="21.28" y1="16.44" x2="34" y2="16.44" xlink:href="#linear-gradient"/></defs><title>tool</title><circle class="cls-1" cx="24" cy="24" r="24"/><path class="cls-2" d="M23.59,20.69v3L20.05,34.86a2.1,2.1,0,0,0,1.59,2.3,2.05,2.05,0,0,0,.49.06A2.43,2.43,0,0,0,24.33,36l3.12-11.78a1.82,1.82,0,0,0,.06-.46l-.4-3Z"/><path class="cls-3" d="M34,16.44l-.92-.3v-.37h-2.4c-.2-1.84-1.27-3-2.83-3l-6.57,0V20.1l6.57,0c1.55,0,2.61-1.14,2.83-2.95h2.4v-.32l.92-.21v-.14Zm-6.15,2.7-5.64,0V13.74l5.64,0c1.8,0,1.94,2.07,1.94,2.71S29.65,19.14,27.85,19.14Z"/></svg>