<svg id="Layer_1" data-name="Layer 1" xmlns="http://www.w3.org/2000/svg" xmlns:xlink="http://www.w3.org/1999/xlink" viewBox="0 0 48 48"><defs><style>.cls-1{fill:#fff;}.cls-2{fill:url(#linear-gradient);}.cls-3{fill:url(#linear-gradient-2);}</style><linearGradient id="linear-gradient" x1="11.51" y1="26.38" x2="36.49" y2="26.38" gradientUnits="userSpaceOnUse"><stop offset="0.01" stop-color="#a1c4fd"/><stop offset="0.57" stop-color="#b2d7fc"/><stop offset="1" stop-color="#c2e9fb"/></linearGradient><linearGradient id="linear-gradient-2" x1="20.83" y1="16.71" x2="32.76" y2="16.71" xlink:href="#linear-gradient"/></defs><title>toothbrush</title><circle class="cls-1" cx="24" cy="24" r="24"/><path class="cls-2" d="M36.07,16.14a1.58,1.58,0,0,0-2.22-.08l-7.79,7.25a1.64,1.64,0,0,0-.21.25,11.22,11.22,0,0,0-6.4,2.83C16.91,28.93,12,34.72,11.82,35A1.31,1.31,0,0,0,12,36.82a1.36,1.36,0,0,0,.85.3,1.29,1.29,0,0,0,1-.46c0-.06,5-6,7.49-8.42,2.1-2.1,5.8-2.16,5.83-2.16a1.26,1.26,0,0,0,.74-.24,1.46,1.46,0,0,0,.33-.22L36,18.37A1.58,1.58,0,0,0,36.07,16.14Z"/><path class="cls-3" d="M23.64,19.52h.08c.11,0,.22,0,.33,0,.32.31,2.85,2.74,3.09,2.5s-1.79-2.82-1.58-3.09l0,0c.36-.13,2.56,1.51,2.73,1.4s-1-2-1.14-2.7l.22-.22c.61.29,2.18,1.8,2.41,1.57s-1.32-2.63-1.17-2.88,2.42,1.94,2.66,1.7-1.41-2.64-1.12-2.93,2.36,1.9,2.56,1.7a4.22,4.22,0,0,0-.89-2.08l.15-.26a1.53,1.53,0,0,0,0-1.6,2.9,2.9,0,0,0-2.45-1.19,2.41,2.41,0,0,0-1.85.76c-.23.26-.56.67-.94,1.14-1,1.26-2.93,3.61-3.53,3.74a1.67,1.67,0,0,1-1.75-.95l-.2-.42-.25.39a2.11,2.11,0,0,0,.09,2A2.74,2.74,0,0,0,23.64,19.52Zm-.29-2c.72-.16,2.16-1.88,3.83-3.93.37-.47.7-.87.93-1.13a1.88,1.88,0,0,1,1.45-.58,2.41,2.41,0,0,1,2,.94.94.94,0,0,1,.11.75,1.27,1.27,0,0,0-.76-.26A2.78,2.78,0,0,0,29,14.57l-.15.21a17,17,0,0,1-3.14,3.4h0a3.4,3.4,0,0,1-2,.81h-.07a2.29,2.29,0,0,1-2.07-1.19,2,2,0,0,1-.24-1A2.1,2.1,0,0,0,23.35,17.56Z"/></svg>