<svg id="Layer_1" data-name="Layer 1" xmlns="http://www.w3.org/2000/svg" xmlns:xlink="http://www.w3.org/1999/xlink" viewBox="0 0 48 48"><defs><style>.cls-1{fill:#fff;}.cls-2{fill:url(#linear-gradient);}</style><linearGradient id="linear-gradient" x1="16" y1="24" x2="32" y2="24" gradientUnits="userSpaceOnUse"><stop offset="0.01" stop-color="#a1c4fd"/><stop offset="0.57" stop-color="#b2d7fc"/><stop offset="1" stop-color="#c2e9fb"/></linearGradient></defs><title>tooth</title><circle class="cls-1" cx="24" cy="24" r="24"/><path class="cls-2" d="M30.23,16.14c-2.1-2.45-5.68-.54-6.19-.25-1.63-1.11-3.91-2.1-5.74-.7A5.52,5.52,0,0,0,16,19a8.06,8.06,0,0,0,1.49,5.34c.31.37.42,2.18.49,3.5.17,2.81.31,5.23,1.75,5.54a1.31,1.31,0,0,0,1-.19c.78-.51,1-1.81,1.3-3.3.36-1.93.7-3.4,1.56-3.34a.57.57,0,0,1,.43.19c.43.53.25,2.1.11,3.25-.2,1.66-.38,3.1.72,3.42a1.25,1.25,0,0,0,.36,0,1.52,1.52,0,0,0,.77-.23c1.68-1,3-5.38,3.52-7.74A6.31,6.31,0,0,0,32,21.32,6.61,6.61,0,0,0,30.23,16.14Zm.54,5a5.11,5.11,0,0,1-2.11,3.53.56.56,0,0,0-.23.36c-.7,3.38-2.05,6.6-3,7.18l-.15.06a7.77,7.77,0,0,1,.09-2.14c.19-1.58.39-3.22-.37-4.14a1.75,1.75,0,0,0-1.27-.62h-.16c-1.84,0-2.29,2.38-2.65,4.31-.18,1-.43,2.29-.79,2.53,0,0,0,0-.1,0-.55-.11-.73-3.15-.81-4.44-.13-2.18-.23-3.55-.76-4.19a6.88,6.88,0,0,1-1.23-4.44,4.36,4.36,0,0,1,1.8-3c2.32-1.77,6.23,2.3,6.27,2.34a.59.59,0,0,0,.86-.82c0-.05-.45-.46-1.06-1,1-.44,3.05-1.16,4.23.22A5.47,5.47,0,0,1,30.77,21.18Z"/></svg>